<svg height="24" width="24" fill="none" viewBox="0 0 24 24" xmlns="http://www.w3.org/2000/svg" class="login-brand-icon_icon__rgYGQ" focusable="false" role="img" aria-hidden="true"><path d="M16.693 19.733a3.953 3.953 0 0 1-3.946-3.96c0-.78.283-1.47.55-2.186.19-.507.38-1.014.566-1.524.444-1.2.867-2.426 1.064-3.693.156-1.007.136-2.23-.627-3-.583-.59-1.487-.72-2.297-.727-.81.004-1.713.137-2.296.727-.764.77-.78 1.993-.627 3 .197 1.267.62 2.497 1.063 3.693.187.51.377 1.017.567 1.524.267.716.55 1.406.55 2.186a3.953 3.953 0 0 1-3.947 3.96 3.95 3.95 0 0 1-3.663-2.486 2.575 2.575 0 0 0 3.77-.307c.553-.7.67-1.657.433-2.507-.26-.93-.82-1.683-1.27-2.546-1.463-2.5-1.403-4.37-1.403-4.37a5.403 5.403 0 0 1 .06-.807c.023-.143.053-.287.09-.427.037-.133.08-.263.13-.393a3.343 3.343 0 0 1 .603-.997 3.31 3.31 0 0 1 .27-.273 4.166 4.166 0 0 1 .63-.467c.117-.07.237-.133.36-.193a6.135 6.135 0 0 1 .8-.317 6.5 6.5 0 0 1 .437-.126c.153-.04.307-.074.46-.107.16-.033.32-.06.48-.087a13.62 13.62 0 0 1 1.02-.117c.18-.013.357-.023.537-.033.183-.01.37-.013.553-.016.22-.004.44-.004.66-.004.187.004.37.007.557.014.18.006.36.016.54.03.173.013.35.026.523.046.17.017.337.037.503.064a10.096 10.096 0 0 1 .95.18c.147.036.297.076.44.12.14.043.28.09.417.143a5.779 5.779 0 0 1 .76.35c.117.067.227.137.337.213.106.074.21.154.306.24a3.515 3.515 0 0 1 .52.56 3.515 3.515 0 0 1 .627 1.477 4.953 4.953 0 0 1 .08.933s.06 1.87-1.403 4.37c-.45.864-1.014 1.617-1.27 2.547-.237.85-.117 1.807.436 2.507a2.575 2.575 0 0 0 3.77.306 3.973 3.973 0 0 1-3.67 2.48ZM12 0C5.373 0 0 5.373 0 12s5.373 12 12 12 12-5.373 12-12S18.627 0 12 0Z" fill="#140F0F"></path></svg>